<?xml version="1.0" standalone="no"?>
<!DOCTYPE svg PUBLIC "-//W3C//DTD SVG 20010904//EN"
 "http://www.w3.org/TR/2001/REC-SVG-20010904/DTD/svg10.dtd">
<svg version="1.0" xmlns="http://www.w3.org/2000/svg"
 width="192.000000pt" height="192.000000pt" viewBox="0 0 192.000000 192.000000"
 preserveAspectRatio="xMidYMid meet">
<metadata>
Created by potrace 1.11, written by Peter Selinger 2001-2013
</metadata>
<g transform="translate(0.000000,192.000000) scale(0.100000,-0.100000)"
fill="#000000" stroke="none">
<path d="M840 1776 c-6 -6 -10 -13 -10 -17 0 -4 -5 -20 -12 -36 -19 -48 -20
-56 -23 -143 -2 -84 -34 -205 -59 -222 -6 -4 -8 -8 -4 -8 7 0 -116 -250 -193
-392 -17 -32 -46 -71 -64 -87 -53 -46 -69 -78 -71 -142 -2 -53 2 -65 37 -121
79 -125 185 -368 196 -448 3 -19 8 -38 12 -42 8 -9 586 -12 601 -3 5 3 10 17
10 31 0 41 124 350 150 374 3 3 11 16 19 30 8 14 28 46 44 73 23 36 30 59 30
96 -1 57 -31 121 -65 140 -35 18 -127 177 -248 426 -69 141 -92 207 -91 255 1
19 1 52 2 73 0 21 -9 66 -21 101 -17 52 -25 65 -46 69 -13 2 -27 0 -31 -6 -3
-6 -7 -195 -7 -421 l-1 -410 -42 -3 c-24 -1 -45 3 -49 8 -3 6 -6 196 -5 422
l0 412 -25 0 c-14 0 -29 -4 -34 -9z"/>
</g>
</svg>
